<?xml version="1.0" encoding="utf-8"?>
<svg xmlns="http://www.w3.org/2000/svg" viewBox="0 0 500 500">
  <g id="Layer_1">
    <g transform="matrix(1.205431, 0, 0, 1.213002, -88.640045, -58.718613)" style="">
      <path fill="#F24348" opacity="1.000000" stroke="none" d="M 289.705 437.44 C 289.789 436.405 289.873 435.371 290.056 433.589 C 290.4 405.12 291.98 377.53 298.368 350.42 C 298.529 350.028 298.69 349.636 299.057 348.672 C 299.729 346.28 300.195 344.46 300.662 342.64 C 300.662 342.64 300.559 342.551 300.802 342.515 C 301.122 342.13 301.199 341.781 301.277 341.432 C 301.473 341.046 301.669 340.66 302.088 339.702 C 309.471 320.3 322.301 306.055 338.191 294.122 C 346.941 287.552 355.281 280.439 363.801 273.571 C 364.081 273.649 364.291 273.569 364.821 273.05 C 367.601 270.677 370.001 268.584 372.401 266.491 C 372.681 266.629 372.981 266.718 373.551 267.136 C 376.241 283.671 368.241 296.049 359.051 307.939 C 351.941 317.136 344.611 326.17 337.511 335.375 C 336.331 336.906 335.801 338.943 334.981 340.746 C 335.331 341.042 335.681 341.338 336.021 341.634 C 337.911 340.761 339.931 340.103 341.651 338.981 C 354.791 330.407 366.971 320.631 377.421 308.881 C 385.271 300.057 392.411 290.698 396.541 279.428 C 396.961 278.683 397.381 277.939 398.061 276.643 C 399.931 271.204 402.001 266.414 403.051 261.412 C 406.511 244.998 405.551 229.066 396.621 214.285 C 396.061 213.163 395.491 212.042 394.901 210.511 C 395.531 210.048 396.201 209.995 396.871 209.942 C 396.871 209.942 397.301 209.848 397.121 210.203 C 400.591 214.76 404.251 218.964 407.901 223.167 C 407.951 223.483 408.001 223.8 408.281 224.608 C 410.491 229.133 412.921 233.008 414.361 237.222 C 427.471 275.503 420.491 310.755 397.471 343.218 C 383.911 362.329 365.681 376.727 347.401 390.981 C 329.261 405.125 311.161 419.295 296.688 437.439 C 294.891 439.692 293.084 441.936 290.699 444.911 C 290.269 441.679 289.987 439.559 289.705 437.44 Z" style="stroke-width: 1;"/>
      <path fill="#253D6F" opacity="1.000000" stroke="none" d="M 268.552 442.769 C 268.552 442.769 268.541 442.529 268.396 442.167 C 267.595 441.054 266.939 440.302 266.283 439.551 C 266.283 439.551 266.299 439.471 266.185 439.145 C 255.406 428.17 244.741 417.521 234.076 406.873 C 234.076 406.873 233.938 406.821 233.741 406.492 C 231.644 404.748 229.745 403.334 227.846 401.919 C 227.772 402.094 227.699 402.268 227.604 401.874 C 214.483 390.741 201.382 380.176 188.281 369.611 C 187.957 369.207 187.632 368.802 186.905 368.017 C 181.137 362.204 175.77 356.772 170.404 351.34 C 170.404 351.34 170.35 351.422 170.295 351.063 C 161.336 340.32 153.768 328.988 149.298 316.071 C 145.857 306.128 143.869 295.682 141.235 285.46 C 141.269 284.693 141.304 283.927 141.301 282.333 C 141.149 276.475 141.036 271.444 140.923 266.413 C 141.091 264.69 141.26 262.968 141.53 260.492 C 144.082 241.948 150.729 226.024 162.658 212.449 C 162.925 212.406 163.126 212.268 163.684 211.785 C 163.982 213.069 164.278 214.794 163.673 216.104 C 151.843 241.692 155.952 265.829 170.112 289.099 C 170.112 289.099 170.084 289.294 170.197 289.715 C 173.563 294.663 176.814 299.189 180.066 303.715 C 180.066 303.715 180.213 303.54 180.192 303.904 C 180.906 304.949 181.641 305.63 182.376 306.311 C 182.538 306.619 182.699 306.927 183.189 307.653 C 189.373 313.627 195.228 319.184 201.084 324.741 C 201.084 324.741 201.188 324.589 201.241 324.94 C 209.268 331.383 216.623 338.445 226.202 342.015 C 226.721 341.55 227.239 341.085 227.758 340.62 C 224.61 336.242 221.462 331.864 218.326 327.455 C 218.339 327.424 218.277 327.448 218.192 327.121 C 207.996 313.715 196.125 301.887 189.423 286.389 C 189.393 285.939 189.364 285.489 189.227 284.441 C 188.815 283.387 188.51 282.93 188.204 282.474 C 188.135 281.692 188.065 280.909 187.918 279.458 C 187.632 277.677 187.423 276.563 187.214 275.449 C 187.284 274.676 187.355 273.903 187.447 272.447 C 187.453 270.649 187.438 269.534 187.423 268.42 C 188.156 267.99 188.889 267.561 190.205 267.548 C 193.558 270.218 196.328 272.471 199.097 274.725 C 199.097 274.725 199.194 274.58 199.245 274.931 C 205.97 280.342 212.644 285.401 219.319 290.46 C 219.319 290.46 219.335 290.418 219.468 290.731 C 222.507 293.189 225.413 295.334 228.319 297.479 C 228.521 297.751 228.722 298.022 229.318 298.63 C 231.588 300.451 233.464 301.936 235.34 303.42 C 235.831 304.017 236.323 304.613 237.17 305.573 C 238.227 306.498 238.928 307.061 239.629 307.623 C 240.329 308.473 241.03 309.323 242.131 310.622 C 244.718 313.648 246.905 316.225 249.092 318.802 C 249.092 318.802 249.113 318.596 249.066 318.943 C 249.43 319.742 249.84 320.194 250.251 320.646 C 250.455 321.154 250.659 321.66 251.162 322.642 C 255.767 333.547 260.074 343.977 264.38 354.408 C 264.38 354.865 264.38 355.323 264.46 356.418 C 264.877 357.818 265.213 358.582 265.548 359.345 C 265.591 360.136 265.633 360.928 265.796 362.444 C 267.478 377.996 269.29 392.802 270.517 407.656 C 271.362 417.879 271.398 428.169 271.795 438.429 C 271.692 440.161 271.59 441.893 271.155 444.009 C 270.066 443.852 269.309 443.31 268.552 442.769 Z" style="stroke-width: 1;"/>
      <path fill="#253D6F" opacity="1.000000" stroke="none" d="M 108.573 275.328 C 108.458 274.496 108.342 273.663 108.056 272.175 C 107.484 270.898 107.083 270.276 106.681 269.654 C 106.684 268.77 106.686 267.885 106.562 266.297 C 105.604 260.869 104.774 256.143 103.944 251.418 C 103.917 248.376 103.891 245.334 103.876 241.435 C 103.933 237.859 103.979 235.139 104.025 232.419 C 104.151 231.976 104.276 231.534 104.516 230.439 C 104.812 227.998 104.994 226.208 105.175 224.418 C 105.294 223.981 105.413 223.544 105.656 222.574 C 105.839 221.5 105.896 220.957 105.954 220.414 C 106.44 218.674 106.926 216.935 107.594 214.605 C 107.778 213.82 107.779 213.624 107.78 213.428 C 107.78 213.428 107.817 213.269 108.015 212.905 C 109.624 208.515 111.034 204.488 112.445 200.461 C 112.753 199.984 113.062 199.506 113.675 198.558 C 115.854 194.566 117.728 191.044 119.601 187.522 C 120.487 186.372 121.373 185.223 122.587 183.628 C 123.18 182.633 123.444 182.084 123.709 181.534 C 124.231 181.055 124.753 180.576 125.644 179.69 C 132.348 173.387 138.684 167.491 145.019 161.594 C 145.019 161.594 145.2 161.635 145.569 161.544 C 146.194 161.151 146.45 160.848 146.706 160.546 C 147.199 160.402 147.692 160.258 148.643 159.82 C 150.953 158.39 152.805 157.255 154.657 156.119 C 154.657 156.119 155.091 156.11 155.608 155.928 C 159.027 154.339 161.928 152.933 164.83 151.528 C 166.801 151.025 168.772 150.523 171.46 149.869 C 176.568 148.788 180.957 147.859 185.346 146.93 C 187.427 146.893 189.507 146.855 192.291 146.815 C 193.441 146.731 193.889 146.648 194.337 146.565 C 198.367 146.928 202.397 147.29 207.161 147.828 C 213.525 149.331 219.156 150.658 224.787 151.986 C 224.787 151.986 224.848 151.956 225.048 152.18 C 225.616 152.449 225.986 152.493 226.356 152.537 C 226.52 152.847 226.777 152.997 227.558 153.178 C 234.063 156.504 240.137 159.639 246.212 162.773 C 247.593 163.84 248.973 164.907 250.832 166.328 C 254.945 169.709 258.58 172.736 262.215 175.763 C 263.291 176.947 264.367 178.131 265.814 179.715 C 266.521 180.31 266.856 180.505 267.192 180.701 C 267.192 180.701 267.185 180.567 267.232 180.911 C 268.612 182.698 269.944 184.141 271.276 185.584 C 272.091 186.773 272.905 187.962 274.067 189.61 C 275.372 191.229 276.33 192.389 277.288 193.549 C 277.633 194.306 277.979 195.063 278.008 196.323 C 275.282 195.574 272.871 194.324 270.312 192.818 C 269.286 192.156 268.408 191.75 267.329 191.055 C 260.862 188.089 254.597 185.411 248.118 182.465 C 247.038 181.993 246.173 181.789 244.997 181.367 C 237.9 179.733 231.114 178.318 223.94 176.728 C 222.154 176.497 220.756 176.441 219.019 176.152 C 204.853 174.959 191.34 176.271 178.367 181.488 C 177.794 181.55 177.221 181.612 176.089 181.918 C 175.205 182.489 174.879 182.815 174.552 183.141 C 174.552 183.141 174.164 182.875 174.164 182.875 C 174.164 182.875 173.701 182.956 173.234 183.076 C 172.482 183.447 172.197 183.697 171.912 183.947 C 171.912 183.947 171.882 183.907 171.522 183.921 C 169.543 184.733 167.925 185.531 166.307 186.329 C 165.09 186.818 163.873 187.307 162.148 188.121 C 159.736 189.725 157.832 191.002 155.927 192.28 C 155.144 192.706 154.361 193.132 153.091 193.888 C 148.14 198.602 143.674 202.986 139.209 207.37 C 137.972 208.879 136.735 210.387 135.167 212.362 C 134.6 213.372 134.365 213.915 134.13 214.458 C 134.13 214.458 134.075 214.561 133.766 214.799 C 131.681 218.496 129.906 221.955 128.131 225.414 C 127.845 225.571 127.708 225.812 127.466 226.54 C 126.071 230.042 124.931 233.143 123.792 236.244 C 123.612 236.781 123.432 237.318 123.095 238.391 C 122.771 239.759 122.605 240.592 122.439 241.424 C 122.041 242.848 121.644 244.272 121.054 246.213 C 120.829 247.297 120.795 247.863 120.762 248.43 C 120.536 249.807 120.31 251.185 119.941 253.294 C 119.634 256.16 119.471 258.293 119.308 260.427 C 119.149 266.134 118.99 271.841 118.851 278.358 C 119.331 282.597 119.792 286.026 120.252 289.456 C 120.209 289.903 120.166 290.351 120.171 291.495 C 120.599 293.934 120.979 295.674 121.359 297.415 C 121.488 298.506 121.618 299.597 121.596 301.033 C 121.062 301.445 120.68 301.512 120.298 301.579 C 119.634 300.306 118.97 299.033 118.033 297.175 C 116.348 293.844 114.935 291.098 113.522 288.352 C 113.364 287.807 113.206 287.261 112.845 286.172 C 112.261 285.046 111.879 284.463 111.498 283.88 C 111.475 283.533 111.452 283.186 111.295 282.279 C 110.298 279.588 109.436 277.458 108.573 275.328 Z" style="stroke-width: 1;"/>
      <path fill="#253D6F" opacity="1.000000" stroke="none" d="M 231.639 106.428 C 231.504 106.868 231.369 107.308 231.066 108.362 C 230.635 110.135 230.37 111.293 230.105 112.452 C 230.105 112.452 229.788 112.745 229.542 113.137 C 225.917 118.137 222.54 122.745 219.162 127.353 C 218.837 127.272 218.568 127.36 217.931 127.939 C 213.131 130.346 208.754 132.432 204.377 134.517 C 203.603 134.564 202.829 134.612 201.264 134.713 C 197.759 134.868 195.045 134.969 192.331 135.07 C 191.572 134.87 190.814 134.671 189.415 134.282 C 187.062 133.542 185.335 133.034 183.64 132.432 C 174.255 129.098 168.477 121.889 163.604 113.717 C 163.822 113.412 163.838 113.096 163.472 112.21 C 162.569 109.267 161.847 106.883 161.125 104.5 C 161.126 103.081 161.127 101.662 161.138 99.435 C 162.01 85.607 167.728 75.498 179.056 68.753 C 180.743 67.75 182.442 66.767 184.135 65.775 C 184.392 66.014 184.678 66.056 185.585 65.757 C 191.566 65.16 196.954 64.707 202.342 64.254 C 202.779 64.373 203.215 64.492 204.254 64.769 C 210.327 67.796 215.798 70.666 221.269 73.535 C 221.269 73.535 221.317 73.444 221.387 73.791 C 230.515 83.115 232.898 94.197 231.639 106.428 Z" style="stroke-width: 1;"/>
      <path fill="#FBFBFB" opacity="1.000000" stroke="none" d="M 301.056 341.573 C 301.199 341.781 301.122 342.13 300.784 342.581 C 300.627 342.359 300.731 342.036 301.056 341.573 Z" style="stroke-width: 1;"/>
      <path fill="#253D6F" opacity="1.000000" stroke="none" d="M 279.266 197.19 C 279.009 197.28 278.62 197.137 278.265 196.674 C 278.578 196.555 278.856 196.756 279.266 197.19 Z" style="stroke-width: 1;"/>
      <path fill="#F24348" opacity="1.000000" stroke="none" d="M 317.731 180.803 C 306.455 185.665 295.552 190.395 283.953 195.427 C 285.032 193.744 285.861 192.277 286.853 190.93 C 302.517 169.64 322.671 154.578 348.701 148.928 C 385.931 140.847 423.391 157.425 442.621 189.176 C 463.721 224.02 461.931 259.775 444.271 295.492 C 443.741 296.567 442.851 297.47 441.091 298.112 C 441.651 293.101 442.311 288.099 442.741 283.077 C 444.481 262.832 442.471 243.095 433.741 224.505 C 421.891 199.285 401.231 185.179 374.791 178.575 C 355.691 173.805 336.811 174.896 317.731 180.803 Z" style="stroke-width: 1;"/>
      <path fill="#F24348" opacity="1.000000" stroke="none" d="M 341.071 122.621 C 325.121 103.585 332.991 73.043 357.231 65.847 C 371.281 61.675 383.721 64.999 393.611 75.791 C 403.411 86.477 405.371 99.221 400.281 112.542 C 395.121 126.05 384.631 133.379 370.261 134.647 C 358.731 135.665 349.071 131.456 341.071 122.621 Z" style="stroke-width: 1;"/>
    </g>
  </g>
</svg>